<?xml version="1.0" encoding="UTF-8"?>
<svg version="1.1" xmlns="http://www.w3.org/2000/svg" width="512" height="512">
<path d="M0 0 C0.99614374 -0.07649883 1.99228748 -0.15299765 3.01861739 -0.23181462 C6.35880743 -0.48331538 9.69979851 -0.72053478 13.04119873 -0.9553833 C14.79959548 -1.08216965 14.79959548 -1.08216965 16.5935154 -1.21151733 C39.35043118 -2.83763419 62.12158696 -3.85892327 84.922143 -4.62656336 C88.68967266 -4.75368266 92.45703107 -4.88533842 96.2243042 -5.01983643 C96.97365674 -5.04651033 97.72300928 -5.07318423 98.49506947 -5.10066643 C108.92963787 -5.48197371 119.31927176 -6.11823827 129.72530854 -6.97366656 C191.06826448 -12.01083226 246.75561627 -11.47103206 296.18409511 29.68376087 C336.56790074 64.03648278 362.22270899 103.14257145 366.58495148 156.58520022 C368.8891612 187.98684046 367.1364511 219.51236393 365.00085104 250.86859941 C364.1683105 263.24451367 363.63275764 275.60983872 363.28314209 288.00848389 C363.25812042 288.89311961 363.23309874 289.77775534 363.20731883 290.68919821 C363.1076888 294.24841883 363.00996244 297.80768472 362.91470289 301.36702505 C362.17246795 329.07965618 361.14718811 356.7756135 359.45812857 384.44766521 C359.33436557 386.52229838 359.21885987 388.59723457 359.105793 390.67247581 C358.89322264 394.46693544 358.6505985 398.25817893 358.39775085 402.05014038 C358.34001037 403.14905409 358.28226989 404.24796779 358.22277969 405.38018191 C357.61913992 413.5539123 355.27338845 419.28207265 349.14569092 424.82879639 C344.22574218 428.24263837 339.83661871 429.20315076 333.90396404 429.21106529 C332.67837959 429.21751418 331.45279514 429.22396308 330.19007176 429.23060739 C328.83833823 429.22766541 327.48660512 429.22453 326.13487244 429.22122192 C324.69242579 429.22495976 323.24998117 429.22956182 321.80753976 429.23495257 C317.84789727 429.24718146 313.88833927 429.24692224 309.92868221 429.24456382 C305.65657874 429.24415562 301.38450235 429.25519503 297.1124115 429.26467896 C288.74414373 429.28128921 280.37590413 429.28678851 272.00762125 429.28790371 C265.20530068 429.28885415 258.4029894 429.29296425 251.60067177 429.29930496 C232.31357197 429.31691727 213.02649442 429.32614382 193.73938652 429.32464401 C192.699695 429.3245641 191.66000348 429.32448419 190.58880615 429.32440186 C189.54784479 429.32432009 188.50688342 429.32423833 187.43437777 429.32415409 C170.56316689 429.32334115 153.69204528 429.34248102 136.82086023 429.37067859 C119.49640034 429.39940521 102.17198398 429.41321901 84.84749967 429.41149104 C75.12160905 429.41082707 65.39581202 429.41632236 55.66994286 429.43784714 C47.38931942 429.45605597 39.10883199 429.4604087 30.8281972 429.44682829 C26.6042645 429.4402972 22.38059277 429.44018645 18.15668488 429.45753479 C14.28705924 429.47326442 10.41790152 429.47040331 6.54828731 429.45296653 C5.15127465 429.44989637 3.75422708 429.45352971 2.3572556 429.46468668 C-6.21793849 429.52861631 -14.26419484 429.37662807 -20.78856975 423.17447793 C-25.42902702 418.07481094 -27.16554604 414.25276154 -27.1768713 407.26823807 C-27.18067697 406.59404674 -27.18448264 405.9198554 -27.18840364 405.22523403 C-27.19874766 402.95574286 -27.19480813 400.6865005 -27.19096375 398.41699219 C-27.19541463 396.77756847 -27.20072819 395.13814691 -27.20683247 393.49872851 C-27.2210409 388.98536793 -27.22267522 384.47207611 -27.22223556 379.95869637 C-27.22388127 375.09420465 -27.23694318 370.22974148 -27.24842834 365.36526489 C-27.27129666 354.7248085 -27.27920092 344.08437202 -27.28425479 333.44389439 C-27.28750968 326.80171219 -27.29403089 320.15953579 -27.30125618 313.51735687 C-27.32082449 295.13207307 -27.33722735 276.74679467 -27.34013271 258.36149979 C-27.34032028 257.18454349 -27.34050785 256.00758719 -27.34070111 254.79496555 C-27.34106736 252.40891759 -27.34143106 250.02286962 -27.34179222 247.63682166 C-27.34206644 245.8601304 -27.34206644 245.8601304 -27.34234619 244.04754639 C-27.34252674 242.8616422 -27.34270729 241.67573801 -27.34289331 240.45389733 C-27.34643555 221.23452271 -27.37346008 202.0152601 -27.41084408 182.79592434 C-27.44890635 163.07025659 -27.46829004 143.34464445 -27.46859223 123.61893916 C-27.46917726 112.54102116 -27.47769919 101.46323675 -27.50658989 90.38535309 C-27.53107593 80.95290825 -27.53840543 71.52064573 -27.52334236 62.08817771 C-27.51616211 57.27499207 -27.51707893 52.46216665 -27.53975296 47.64902115 C-27.56031466 43.2420734 -27.55776904 38.83576347 -27.53687812 34.42882285 C-27.53337782 32.83526616 -27.53831612 31.24166371 -27.55258255 29.64816704 C-27.63155829 20.21858328 -27.20650401 13.46560029 -20.47414201 6.45055318 C-14.5110262 0.9784068 -7.68207623 0.55165393 0 0 Z M16.08319092 44.95379639 C16.08319092 157.15379639 16.08319092 269.35379639 16.08319092 384.95379639 C114.42319092 384.95379639 212.76319092 384.95379639 314.08319092 384.95379639 C314.08319092 300.80379639 314.08319092 216.65379639 314.08319092 129.95379639 C293.29319092 129.95379639 272.50319092 129.95379639 251.08319092 129.95379639 C245.58855057 136.97196873 245.58855057 136.97196873 240.39178467 144.16082764 C239.45084961 145.51953979 239.45084961 145.51953979 238.49090576 146.90570068 C237.84073486 147.84969727 237.19056396 148.79369385 236.52069092 149.76629639 C235.10559053 151.81075011 233.69022108 153.85501763 232.27459717 155.89910889 C231.57093018 156.91650146 230.86726318 157.93389404 230.14227295 158.9821167 C227.09572798 163.37890889 224.02858042 167.76113589 220.95819092 172.14129639 C219.81754445 173.76888551 218.67691943 175.39648966 217.53631592 177.02410889 C216.97235107 177.82880615 216.40838623 178.63350342 215.82733154 179.46258545 C214.0091597 182.0595375 212.19426965 184.65875843 210.38006592 187.25848389 C209.76929199 188.13279053 209.15851807 189.00709717 208.52923584 189.90789795 C207.33239305 191.62221198 206.13719276 193.33767412 204.94378662 195.05438232 C202.48645585 198.57826169 200.02143311 202.07931756 197.39178467 205.47723389 C196.65057373 206.43887451 195.90936279 207.40051514 195.14569092 208.39129639 C194.51791748 209.17375732 193.89014404 209.95621826 193.24334717 210.76239014 C191.71390093 213.65134413 192.20815521 214.84898014 193.08319092 217.95379639 C194.23579327 220.08674995 194.23579327 220.08674995 195.75115967 222.11395264 C196.30739014 222.89705811 196.86362061 223.68016357 197.43670654 224.48699951 C198.04192139 225.32166748 198.64713623 226.15633545 199.27069092 227.01629639 C200.55606856 228.81952401 201.84121856 230.62291392 203.12615967 232.42645264 C203.785354 233.34571533 204.44454834 234.26497803 205.12371826 235.21209717 C208.14289699 239.43653986 211.11192713 243.69558896 214.08319092 247.95379639 C215.24958405 249.62065449 216.41625161 251.2873206 217.58319092 252.95379639 C219.91652425 256.28712972 222.24985758 259.62046305 224.58319092 262.95379639 C225.16165771 263.78016602 225.74012451 264.60653564 226.33612061 265.45794678 C227.49306541 267.11074817 228.64996705 268.76357979 229.80682373 270.41644287 C232.87186622 274.79550766 235.93783913 279.17391746 239.00506592 283.55145264 C239.64572998 284.46604248 240.28639404 285.38063232 240.94647217 286.32293701 C242.17796812 288.0809421 243.40972698 289.83876306 244.64178467 291.59637451 C245.47129639 292.78070068 245.47129639 292.78070068 246.31756592 293.98895264 C246.80450928 294.68383789 247.29145264 295.37872314 247.79315186 296.09466553 C248.90828258 297.70172844 249.99816447 299.32625672 251.08319092 300.95379639 C233.59319092 300.95379639 216.10319092 300.95379639 198.08319092 300.95379639 C197.09319092 298.47879639 197.09319092 298.47879639 196.08319092 295.95379639 C194.85768054 293.96687926 194.85768054 293.96687926 193.43084717 292.09051514 C192.90692383 291.37629395 192.38300049 290.66207275 191.84320068 289.9262085 C191.28302246 289.1721875 190.72284424 288.4181665 190.14569092 287.64129639 C188.96713047 286.03300278 187.79007529 284.42360515 186.61444092 282.81317139 C186.02276123 282.00299561 185.43108154 281.19281982 184.82147217 280.35809326 C182.20634387 276.74098883 179.6676847 273.07372487 177.14569092 269.39129639 C176.69403564 268.73347168 176.24238037 268.07564697 175.77703857 267.39788818 C172.83924925 263.10280736 169.97429894 258.76576642 167.20428467 254.36004639 C166.83432373 253.89598389 166.46436279 253.43192139 166.08319092 252.95379639 C165.42319092 252.95379639 164.76319092 252.95379639 164.08319092 252.95379639 C162.79609276 254.43270647 162.79609276 254.43270647 161.53631592 256.40692139 C161.02778076 257.16198975 160.51924561 257.91705811 159.99530029 258.69500732 C159.4468042 259.52290771 158.89830811 260.35080811 158.33319092 261.20379639 C157.16238247 262.94409773 155.99046935 264.6836563 154.81756592 266.42254639 C154.20719482 267.33004639 153.59682373 268.23754639 152.96795654 269.17254639 C149.88831364 273.71701425 146.73746009 278.21094371 143.58319092 282.70379639 C143.00859131 283.5239624 142.4339917 284.34412842 141.84197998 285.18914795 C141.29251709 285.97257568 140.7430542 286.75600342 140.17694092 287.56317139 C139.65615967 288.30631592 139.13537842 289.04946045 138.59881592 289.81512451 C137.60064649 291.2236239 136.59045335 292.62369088 135.56756592 294.01434326 C132.97152992 297.15303696 132.97152992 297.15303696 132.08319092 300.95379639 C114.59319092 300.95379639 97.10319092 300.95379639 79.08319092 300.95379639 C88.48910588 287.42248013 97.90810118 273.90087966 107.36541748 260.40545654 C109.10271723 257.92592782 110.83920472 255.44583244 112.57537842 252.96551514 C113.15505371 252.13761475 113.734729 251.30971436 114.33197021 250.45672607 C115.49073689 248.80056047 116.64846815 247.14366988 117.80511475 245.48602295 C120.85797194 241.11407254 123.93280055 236.75982842 127.04022217 232.42645264 C127.68539795 231.52088623 128.33057373 230.61531982 128.99530029 229.68231201 C130.23323882 227.94563567 131.47772281 226.21360065 132.72967529 224.48699951 C133.564021 223.31234131 133.564021 223.31234131 134.41522217 222.11395264 C134.90740234 221.42954102 135.39958252 220.74512939 135.90667725 220.03997803 C137.27306608 217.61711175 137.84119066 215.7247409 138.08319092 212.95379639 C136.59353657 210.46801138 135.13099744 208.38361064 133.33319092 206.14129639 C132.30101937 204.79664619 131.27113691 203.4502363 130.24334717 202.10223389 C129.71370361 201.41355225 129.18406006 200.72487061 128.6383667 200.01531982 C126.2415298 196.83809993 124.00416871 193.55946251 121.77069092 190.26629639 C117.64393584 184.2170429 113.47427052 178.19994229 109.27069092 172.20379639 C108.68545654 171.36880615 108.10022217 170.53381592 107.49725342 169.67352295 C106.29953887 167.96521065 105.1016205 166.25704124 103.90350342 164.54901123 C100.85733729 160.20610003 97.81380709 155.86134501 94.77069092 151.51629639 C94.23274902 150.74898193 93.69480713 149.98166748 93.14056396 149.19110107 C88.42811904 142.46332939 83.75894943 135.70766979 79.08319092 128.95379639 C96.57319092 128.95379639 114.06319092 128.95379639 132.08319092 128.95379639 C132.74319092 130.60379639 133.40319092 132.25379639 134.08319092 133.95379639 C135.3087013 135.94071352 135.3087013 135.94071352 136.73553467 137.81707764 C137.52141968 138.88840942 137.52141968 138.88840942 138.32318115 139.98138428 C138.88335937 140.73540527 139.4435376 141.48942627 140.02069092 142.26629639 C141.19925137 143.87459 142.37630655 145.48398763 143.55194092 147.09442139 C144.14362061 147.90459717 144.73530029 148.71477295 145.34490967 149.54949951 C147.96003797 153.16660394 150.49869714 156.83386791 153.02069092 160.51629639 C153.69817383 161.50303345 153.69817383 161.50303345 154.38934326 162.50970459 C157.32713259 166.80478541 160.19208289 171.14182636 162.96209717 175.54754639 C163.33205811 176.01160889 163.70201904 176.47567139 164.08319092 176.95379639 C164.74319092 176.95379639 165.40319092 176.95379639 166.08319092 176.95379639 C167.37028908 175.4748863 167.37028908 175.4748863 168.63006592 173.50067139 C169.13860107 172.74560303 169.64713623 171.99053467 170.17108154 171.21258545 C170.99382568 169.97073486 170.99382568 169.97073486 171.83319092 168.70379639 C173.00399937 166.96349504 174.17591249 165.22393647 175.34881592 163.48504639 C175.95918701 162.57754639 176.56955811 161.67004639 177.19842529 160.73504639 C180.27806819 156.19057852 183.42892174 151.69664906 186.58319092 147.20379639 C187.15779053 146.38363037 187.73239014 145.56346436 188.32440186 144.71844482 C189.14859619 143.54330322 189.14859619 143.54330322 189.98944092 142.34442139 C190.51022217 141.60127686 191.03100342 140.85813232 191.56756592 140.09246826 C192.56573535 138.68396887 193.57592848 137.28390189 194.59881592 135.89324951 C197.19485191 132.75455582 197.19485191 132.75455582 198.08319092 128.95379639 C208.31319092 128.95379639 218.54319092 128.95379639 229.08319092 128.95379639 C229.08319092 101.23379639 229.08319092 73.51379639 229.08319092 44.95379639 C158.79319092 44.95379639 88.50319092 44.95379639 16.08319092 44.95379639 Z " fill="#9F82F5" transform="translate(90.91680908203125,41.04620361328125)"/>
</svg>
